<?xml version="1.0" encoding="UTF-8"?>
<svg id="Calque_2" data-name="Calque 2" xmlns="http://www.w3.org/2000/svg" xmlns:xlink="http://www.w3.org/1999/xlink" viewBox="0 0 275.35 289.18">
  <defs>
    <clipPath id="clippath">
      <path d="M254.37,134.34c-.54-19.19-5.71-37.22-14.44-53.01-1.78-3.23-3.7-6.37-5.78-9.39-6.21-9.1-13.68-17.28-22.15-24.27-20.18-16.69-46.09-26.72-74.33-26.72-64.47,0-116.74,52.26-116.74,116.74,0,2.46.08,4.89.24,7.31.69,11.24,2.97,22.05,6.63,32.2,1.24,3.48,2.65,6.87,4.22,10.18,7.95,16.88,19.83,31.55,34.45,42.81,19.7,15.2,44.4,24.23,71.2,24.23,64.47,0,116.74-52.27,116.74-116.74,0-1.12-.02-2.23-.05-3.34ZM137.68,220.22c-12.8,0-24.93-2.92-35.75-8.13-17.4-8.37-31.42-22.67-39.42-40.27-1.51-3.33-2.82-6.79-3.88-10.36-2.27-7.53-3.49-15.52-3.49-23.79,0-3.5.22-6.95.64-10.34,5.09-40.71,39.82-72.21,81.9-72.21,14.4,0,27.93,3.68,39.72,10.17,10.13,5.57,18.98,13.21,25.94,22.35,2.24,2.93,4.27,6,6.1,9.22,6.86,12.04,10.78,25.96,10.78,40.81,0,5.03-.45,9.96-1.32,14.75-6.95,38.55-40.67,67.79-81.23,67.79Z" fill="none" stroke-width="0"/>
    </clipPath>
  </defs>
  <g id="Calque_1-2" data-name="Calque 1">
    <g>
      <path d="M137.68,276.2c-29.6,0-58.3-10.56-80.81-29.72-22.25-18.95-37.2-45.17-42.09-73.82-1.19-6.9-1.79-14.02-1.79-21.15v-13.83c0-33.31,12.97-64.62,36.52-88.17,23.55-23.55,54.86-36.52,88.17-36.52,28.94,0,57.13,10.14,79.4,28.54,9.07,7.49,17.02,16.21,23.65,25.92,2.19,3.2,4.27,6.59,6.18,10.04,9.53,17.24,14.86,36.82,15.42,56.63.04,1.31.05,2.47.05,3.56v13.83c0,6.43-.49,12.86-1.46,19.1-4.48,29.12-19.28,55.83-41.67,75.22-22.63,19.59-51.6,30.38-81.56,30.38ZM63.41,144.56c.46,4.99,1.41,9.9,2.83,14.61.94,3.17,2.12,6.31,3.51,9.36,7.23,15.89,19.89,28.82,35.63,36.39,10.12,4.87,20.99,7.34,32.3,7.34,36.13,0,67-25.76,73.4-61.25.38-2.09.67-4.25.87-6.43-1.68-18.32-10.06-35.3-23.64-47.86-13.82-12.78-31.8-19.82-50.63-19.82s-36.8,7.03-50.62,19.81c-13.58,12.55-21.96,29.52-23.65,47.84Z" fill="#ad3200" stroke-width="0"/>
      <path d="M137.68,289.18c-32.69,0-64.37-11.66-89.23-32.82C23.89,235.44,7.39,206.49,1.98,174.84c-1.31-7.61-1.98-15.46-1.98-23.34v-13.83c0-36.78,14.32-71.35,40.33-97.35C66.33,14.32,100.9,0,137.68,0c31.95,0,63.08,11.19,87.67,31.52,10.01,8.26,18.79,17.89,26.1,28.61,2.42,3.53,4.72,7.28,6.83,11.11,10.51,19.02,16.4,40.65,17.02,62.52.04,1.45.06,2.73.06,3.93v13.83c0,7.09-.54,14.18-1.61,21.09-4.94,32.15-21.28,61.65-46.01,83.05-24.99,21.63-56.97,33.54-90.06,33.54ZM76.46,144.57c.41,3.71,1.15,7.36,2.21,10.85.78,2.63,1.75,5.22,2.9,7.74,5.97,13.12,16.42,23.8,29.44,30.06,8.35,4.02,17.32,6.06,26.67,6.06,29.85,0,55.34-21.27,60.62-50.57.24-1.34.44-2.72.6-4.12-1.63-14.66-8.5-28.24-19.4-38.33-11.41-10.55-26.26-16.36-41.81-16.36s-30.4,5.81-41.8,16.36c-10.91,10.09-17.77,23.65-19.41,38.31Z" fill="#fff" stroke-width="0"/>
      <path d="M137.68,276.2c-29.6,0-58.3-10.56-80.81-29.72-22.25-18.95-37.2-45.17-42.09-73.82-1.19-6.9-1.79-14.02-1.79-21.15v-13.83c0-33.31,12.97-64.62,36.52-88.17,23.55-23.55,54.86-36.52,88.17-36.52,28.94,0,57.13,10.14,79.4,28.54,9.07,7.49,17.02,16.21,23.65,25.92,2.19,3.2,4.27,6.59,6.18,10.04,9.53,17.24,14.86,36.82,15.42,56.63.04,1.31.05,2.47.05,3.56v13.83c0,6.43-.49,12.86-1.46,19.1-4.48,29.12-19.28,55.83-41.67,75.22-22.63,19.59-51.6,30.38-81.56,30.38ZM63.41,144.56c.46,4.99,1.41,9.9,2.83,14.61.94,3.17,2.12,6.31,3.51,9.36,7.23,15.89,19.89,28.82,35.63,36.39,10.12,4.87,20.99,7.34,32.3,7.34,36.13,0,67-25.76,73.4-61.25.38-2.09.67-4.25.87-6.43-1.68-18.32-10.06-35.3-23.64-47.86-13.82-12.78-31.8-19.82-50.63-19.82s-36.8,7.03-50.62,19.81c-13.58,12.55-21.96,29.52-23.65,47.84Z" fill="#ad3200" stroke-width="0"/>
      <circle cx="137.68" cy="137.67" r="82.54" fill="#ffab00" stroke-width="0"/>
      <polygon points="137.67 76.92 143.94 107.47 159.8 80.61 155.81 111.54 179.52 91.29 165.71 119.25 194.72 107.79 172.57 129.75 203.73 128.33 175.65 141.91 205.58 150.68 174.61 154.41 200.07 172.43 169.57 165.9 187.8 191.21 161.08 175.13 170.1 204.98 150.05 181.1 148.89 212.27 137.67 183.16 126.46 212.27 125.3 181.1 105.24 204.98 114.27 175.13 87.54 191.21 105.77 165.9 75.27 172.43 100.73 154.41 69.77 150.68 99.7 141.91 71.62 128.33 102.78 129.75 80.63 107.79 109.64 119.25 95.82 91.29 119.54 111.54 115.55 80.61 131.4 107.47 137.67 76.92" fill="#ffda00" stroke-width="0"/>
      <path d="M254.01,138.64c-4.89-59.96-55.12-103.88-116.34-103.88S26.64,81.53,21.4,141.15l-.46-3.47v13.83c0,6.75.57,13.37,1.68,19.81,9.4,55.04,57.34,96.93,115.06,96.93s106.77-42.87,115.37-98.86c.9-5.83,1.37-11.8,1.37-17.88v-13.83l-.4.97ZM137.68,234.05c-45.59,0-82.54-36.96-82.54-82.54s36.96-82.54,82.54-82.54,82.54,36.96,82.54,82.54-36.96,82.54-82.54,82.54Z" fill="#ad3200" stroke-width="0"/>
      <path d="M254.01,138.64c-4.89-59.96-55.12-103.88-116.34-103.88S26.64,81.53,21.4,141.15l-.46-3.47v13.83c0,6.75.57,13.37,1.68,19.81,9.4,55.04,57.34,96.93,115.06,96.93s106.77-42.87,115.37-98.86c.9-5.83,1.37-11.8,1.37-17.88v-13.83l-.4.97ZM137.68,234.05c-45.59,0-82.54-36.96-82.54-82.54s36.96-82.54,82.54-82.54,82.54,36.96,82.54,82.54-36.96,82.54-82.54,82.54Z" fill="#ad3200" stroke-width="0"/>
      <path d="M254.42,137.67c0-64.47-52.27-116.74-116.74-116.74S20.94,73.2,20.94,137.67s52.27,116.74,116.74,116.74,116.74-52.27,116.74-116.74ZM55.13,137.67c0-45.59,36.96-82.54,82.54-82.54s82.54,36.96,82.54,82.54-36.96,82.54-82.54,82.54-82.54-36.96-82.54-82.54Z" fill="#ffda00" stroke-width="0"/>
      <path d="M254.37,134.34c-.54-19.19-5.71-37.22-14.44-53.01-1.78-3.23-3.7-6.37-5.78-9.39-6.21-9.1-13.68-17.28-22.15-24.27-20.18-16.69-46.09-26.72-74.33-26.72-64.47,0-116.74,52.26-116.74,116.74,0,2.46.08,4.89.24,7.31.69,11.24,2.97,22.05,6.63,32.2,1.24,3.48,2.65,6.87,4.22,10.18,7.95,16.88,19.83,31.55,34.45,42.81,19.7,15.2,44.4,24.23,71.2,24.23,64.47,0,116.74-52.27,116.74-116.74,0-1.12-.02-2.23-.05-3.34ZM137.68,220.22c-12.8,0-24.93-2.92-35.75-8.13-17.4-8.37-31.42-22.67-39.42-40.27-1.51-3.33-2.82-6.79-3.88-10.36-2.27-7.53-3.49-15.52-3.49-23.79,0-3.5.22-6.95.64-10.34,5.09-40.71,39.82-72.21,81.9-72.21,14.4,0,27.93,3.68,39.72,10.17,10.13,5.57,18.98,13.21,25.94,22.35,2.24,2.93,4.27,6,6.1,9.22,6.86,12.04,10.78,25.96,10.78,40.81,0,5.03-.45,9.96-1.32,14.75-6.95,38.55-40.67,67.79-81.23,67.79Z" fill="#ffda00" stroke-width="0"/>
      <g>
        <path d="M254.41,136.66c-.01,1.95-.08,3.89-.2,5.82-1.05-17.84-6.1-34.6-14.28-49.4-1.78-3.23-3.71-6.37-5.78-9.4-6.21-9.1-13.68-17.27-22.15-24.27-20.18-16.68-46.09-26.72-74.33-26.72-62.13,0-112.91,48.53-116.53,109.76-.12-1.98-.19-3.96-.2-5.96.62-63.94,52.65-115.56,116.73-115.56,28.24,0,54.15,10.03,74.33,26.72,8.47,6.99,15.94,15.17,22.15,24.27,2.08,3.03,4,6.16,5.78,9.39,8.72,15.79,13.89,33.82,14.43,53.01.02.77.03,1.55.04,2.32Z" fill="#fffae7" stroke-width="0"/>
        <path d="M220.21,150.36c-.04,4.71-.49,9.33-1.3,13.82-6.95,38.55-40.67,67.79-81.23,67.79-12.81,0-24.93-2.92-35.75-8.12-17.4-8.38-31.42-22.67-39.42-40.27-1.52-3.33-2.82-6.79-3.88-10.36-2.18-7.23-3.39-14.89-3.48-22.82.02-1.96.12-3.91.28-5.84.48,5.83,1.56,11.49,3.19,16.9,1.06,3.56,2.37,7.03,3.88,10.36,8.01,17.6,22.02,31.9,39.42,40.27,10.82,5.21,22.94,8.13,35.75,8.13,40.56,0,74.28-29.25,81.23-67.79.46-2.56.8-5.16,1.02-7.8.16,1.89.25,3.81.28,5.73Z" fill="#fffae7" stroke-width="0"/>
      </g>
      <g>
        <path d="M254.41,136.66c-.01,1.95-.08,3.89-.2,5.82-1.05-17.84-6.1-34.6-14.28-49.4-1.78-3.23-3.71-6.37-5.78-9.4-6.21-9.1-13.68-17.27-22.15-24.27-20.18-16.68-46.09-26.72-74.33-26.72-62.13,0-112.91,48.53-116.53,109.76-.12-1.98-.19-3.96-.2-5.96.62-63.94,52.65-115.56,116.73-115.56,28.24,0,54.15,10.03,74.33,26.72,8.47,6.99,15.94,15.17,22.15,24.27,2.08,3.03,4,6.16,5.78,9.39,8.72,15.79,13.89,33.82,14.43,53.01.02.77.03,1.55.04,2.32Z" fill="#fffae7" stroke-width="0"/>
        <path d="M220.21,150.36c-.04,4.71-.49,9.33-1.3,13.82-6.95,38.55-40.67,67.79-81.23,67.79-12.81,0-24.93-2.92-35.75-8.12-17.4-8.38-31.42-22.67-39.42-40.27-1.52-3.33-2.82-6.79-3.88-10.36-2.18-7.23-3.39-14.89-3.48-22.82.02-1.96.12-3.91.28-5.84.48,5.83,1.56,11.49,3.19,16.9,1.06,3.56,2.37,7.03,3.88,10.36,8.01,17.6,22.02,31.9,39.42,40.27,10.82,5.21,22.94,8.13,35.75,8.13,40.56,0,74.28-29.25,81.23-67.79.46-2.56.8-5.16,1.02-7.8.16,1.89.25,3.81.28,5.73Z" fill="#fffae7" stroke-width="0"/>
      </g>
      <g>
        <path d="M113.91,173.85c-8.22-2.61-12.77-11.38-10.17-19.6l15.7-49.54s55.28,17.47,55.26,17.52l-15.7,49.54c-2.61,8.22-11.38,12.77-19.6,10.17l-25.49-8.08Z" fill="#ad3200" stroke-width="0"/>
        <path d="M113.45,117.76h46.75v46.19c0,5.47-4.44,9.92-9.92,9.92h-26.92c-5.47,0-9.92-4.44-9.92-9.92v-46.19h0Z" transform="translate(50.46 -34.53) rotate(17.59)" fill="#ffda00" stroke-width="0"/>
        <rect x="122.12" y="113.14" width="46.75" height="10.62" transform="translate(42.59 -38.43) rotate(17.59)" fill="#fffae7" stroke-width="0"/>
        <rect x="134.9" y="129.51" width="5.18" height="28.39" rx="2.59" ry="2.59" transform="translate(49.85 -34.83) rotate(17.59)" fill="#fffae7" stroke-width="0"/>
        <rect x="145.84" y="132.98" width="5.18" height="28.39" rx="2.59" ry="2.59" transform="translate(51.41 -37.97) rotate(17.59)" fill="#fffae7" stroke-width="0"/>
        <path d="M141.31,168.68l-21.33-6.76c-2.81-.89-4.8-3.15-5.48-5.81l-1.15-.36c-.83,4.08,1.53,8.21,5.58,9.49l21.33,6.76c4.05,1.29,8.36-.73,10.03-4.54l-1.15-.36c-2.09,1.78-5.02,2.48-7.83,1.59Z" fill="#fffae7" stroke-width="0"/>
        <path d="M169.37,120.5c1.55-4.89-.92-10.02-5.51-11.48-.92-.29-1.85-.41-2.77-.37-1.32-4.16-4.44-7.57-8.74-8.93-4.54-1.44-9.32-.26-12.86,2.72-.95-1.03-2.16-1.83-3.58-2.28-4.59-1.45-9.56,1.33-11.11,6.21l44.57,14.13Z" fill="#fffae7" stroke-width="0"/>
        <rect x="123.97" y="126.05" width="5.18" height="28.39" rx="2.59" ry="2.59" transform="translate(48.29 -31.69) rotate(17.59)" fill="#fffae7" stroke-width="0"/>
        <path d="M173.36,137.77l-5.64-1.79-1.74,5.49,5.64,1.79c3.38,1.07,5.26,4.7,4.19,8.08l-1.59,5c-1.07,3.38-4.7,5.26-8.08,4.19l-5.63-1.79-1.74,5.49,5.63,1.79c6.41,2.03,13.28-1.53,15.31-7.94l1.59-5c2.03-6.41-1.53-13.28-7.94-15.31Z" fill="#ad3200" stroke-width="0"/>
      </g>
      <g clip-path="url(#clippath)">
        <g>
          <rect x="-46.01" y="112.19" width="345.04" height="56.46" transform="translate(302.11 210.35) rotate(153.73)" fill="#fffae7" stroke-width="0"/>
          <rect x="-66.88" y="88.15" width="345.04" height="20" transform="translate(243.82 139.4) rotate(153.73)" fill="#fffae7" stroke-width="0"/>
        </g>
      </g>
    </g>
  </g>
</svg>